<svg width="280" height="120" viewBox="0 0 280 120" fill="none" xmlns="http://www.w3.org/2000/svg">
<path d="M111.142 39.6839C109.701 37.0776 107.895 34.4674 105.81 31.9538C107.151 27.0345 108.983 20.3149 109.163 19.6315C109.979 16.5531 109.165 13.3302 106.988 11.0101C105.263 9.17194 102.827 8.11761 100.306 8.11761C97.9686 8.11761 95.7422 8.99885 94.0371 10.5992L87.1339 17.0776C83.0269 15.1293 79.0357 14.0567 75.5424 14.0567C72.0489 14.0567 68.0577 15.1295 63.9508 17.0779L57.0477 10.5996C55.3426 8.99946 53.1165 8.11793 50.7789 8.11793C48.2573 8.11793 45.8217 9.17223 44.0968 11.0102C41.9195 13.3304 41.1063 16.5532 41.9214 19.6316C42.1025 20.3151 43.9334 27.0347 45.275 31.9542C43.1894 34.4674 41.3841 37.0778 39.9428 39.6841C37.2196 44.6077 35.8389 49.3438 35.8389 53.7602V55.8496L75.5424 71.2899L115.246 55.8496V53.7602C115.246 49.3438 113.865 44.6077 111.142 39.6839ZM98.2171 15.0532C98.7855 14.5196 99.5273 14.2259 100.306 14.2259C101.159 14.2261 101.95 14.5683 102.534 15.1905C103.26 15.9639 103.531 17.0396 103.258 18.0682C103.124 18.5738 102.017 22.6405 100.904 26.7237C98.2763 24.2342 95.5059 22.0476 92.7094 20.2218L98.2171 15.0532ZM48.5507 15.1902C49.1342 14.5685 49.9255 14.2262 50.7789 14.2262C51.5575 14.2262 52.2994 14.5197 52.8677 15.0535L58.375 20.2222C55.5785 22.0478 52.8082 24.2346 50.18 26.7239C49.0669 22.6406 47.9596 18.5735 47.8258 18.0681C47.5538 17.0396 47.8246 15.9639 48.5507 15.1902ZM49.4729 36.4536H57.2176C61.1471 36.4536 64.344 39.6505 64.344 43.5798C64.344 47.5093 61.1471 50.7062 57.2176 50.7062H42.2411C43.0643 46.236 45.5972 41.2581 49.4729 36.4536ZM75.5424 64.7358L55.1727 56.8146H57.2176C64.5153 56.8146 70.452 50.8773 70.452 43.58C70.452 36.2827 64.5149 30.3456 57.2176 30.3456H55.2555C60.9436 25.1861 67.2938 21.5868 72.488 20.5057V29.3276H78.5964V20.5057C83.7908 21.5868 90.141 25.1861 95.8291 30.3456H93.867C86.5693 30.3456 80.6324 36.2827 80.6324 43.58C80.6324 50.8773 86.5697 56.8146 93.867 56.8146H95.9119L75.5424 64.7358ZM93.8672 50.7062C89.9377 50.7062 86.7408 47.5093 86.7408 43.5798C86.7408 39.6505 89.9377 36.4536 93.8672 36.4536H101.612C105.488 41.2583 108.021 46.2356 108.844 50.7062H93.8672Z" fill="white"/>
<path d="M58.2358 46.6342C59.9226 46.6342 61.2898 45.2668 61.2898 43.58C61.2898 41.8934 59.9226 40.526 58.2358 40.526C56.5492 40.526 55.1818 41.8934 55.1818 43.58C55.1818 45.2668 56.5492 46.6342 58.2358 46.6342Z" fill="white"/>
<path d="M77.5784 53.7602H73.5062C72.3818 53.7602 71.4702 54.6718 71.4702 55.7962C71.4702 57.8324 75.5424 59.8684 75.5424 59.8684C75.5424 59.8684 79.6144 57.8324 79.6144 55.7962C79.6144 54.6718 78.703 53.7602 77.5784 53.7602Z" fill="white"/>
<path d="M92.8492 46.6342C94.5358 46.6342 95.9032 45.2668 95.9032 43.58C95.9032 41.8934 94.5358 40.526 92.8492 40.526C91.1626 40.526 89.7952 41.8934 89.7952 43.58C89.7952 45.2668 91.1626 46.6342 92.8492 46.6342Z" fill="white"/>
<path d="M129.621 65.5109V20.1166H144.666V24.7857H134.55V31.9191C143.24 32.6973 150.114 39.8955 150.114 48.7151C150.114 57.9884 142.461 65.5109 133.058 65.5109H129.621ZM145.185 48.7151C145.185 42.5543 140.516 36.9773 134.55 36.6531V60.777C140.646 60.4526 145.185 54.8757 145.185 48.7151ZM191.821 53.9678L195.711 56.8211C191.367 62.6576 184.428 66.4189 176.516 66.4189C163.352 66.4189 152.652 55.8484 152.652 42.8137C152.652 29.779 163.352 19.2086 176.516 19.2086C184.169 19.2086 190.978 22.8403 195.388 28.4172L191.626 31.3354C188.189 26.7959 182.742 23.8777 176.516 23.8777C165.946 23.8777 157.58 32.3731 157.58 42.8137C157.58 53.2544 165.946 61.7497 176.516 61.7497C182.872 61.7497 188.384 58.7017 191.821 53.9678ZM236.53 53.9678L240.421 56.8211C236.078 62.6576 229.138 66.4189 221.227 66.4189C208.063 66.4189 197.363 55.8484 197.363 42.8137C197.363 29.779 208.063 19.2086 221.227 19.2086C228.879 19.2086 235.689 22.8403 240.098 28.4172L236.336 31.3354C232.899 26.7959 227.452 23.8777 221.227 23.8777C210.656 23.8777 202.29 32.3731 202.29 42.8137C202.29 53.2544 210.656 61.7497 221.227 61.7497C227.581 61.7497 233.094 58.7017 236.53 53.9678Z" fill="white"/>
<path d="M0.637695 90.1271H18.4686V91.735H2.46009V100.74H10.9289C13.859 100.74 16.0863 101.335 17.611 102.526C19.1356 103.718 19.8979 105.468 19.8979 107.779C19.8979 110.161 19.0879 111.984 17.468 113.246C15.8481 114.509 13.5016 115.14 10.4286 115.14H0.637695V90.1271ZM10.4643 113.604C12.9656 113.604 14.8595 113.127 16.1459 112.174C17.4323 111.198 18.0755 109.756 18.0755 107.851C18.0755 104.111 15.5384 102.241 10.4643 102.241H2.46009V113.604H10.4643ZM31.9991 96.3446C34.3099 96.3446 36.0846 96.9402 37.3234 98.1313C38.5621 99.2986 39.1815 101.026 39.1815 103.313V115.14H37.4663V111.817C36.8708 112.913 36.0012 113.771 34.8578 114.39C33.7143 114.985 32.3446 115.283 30.7485 115.283C28.6759 115.283 27.0322 114.795 25.8173 113.818C24.6262 112.841 24.0306 111.555 24.0306 109.959C24.0306 108.411 24.5785 107.16 25.6744 106.207C26.794 105.23 28.5687 104.742 30.9986 104.742H37.3948V103.241C37.3948 101.502 36.9184 100.18 35.9655 99.2747C35.0365 98.3695 33.6667 97.9169 31.8562 97.9169C30.6174 97.9169 29.4263 98.1313 28.2829 98.5601C27.1632 98.9889 26.2104 99.5606 25.4242 100.275L24.5309 98.9889C25.46 98.1551 26.5796 97.5119 27.8898 97.0593C29.2 96.5828 30.5698 96.3446 31.9991 96.3446ZM30.9986 113.818C32.547 113.818 33.8573 113.461 34.9293 112.746C36.0251 112.031 36.8469 110.995 37.3948 109.637V106.136H31.0343C29.2 106.136 27.866 106.469 27.0322 107.136C26.2223 107.803 25.8173 108.72 25.8173 109.888C25.8173 111.102 26.2699 112.067 27.1751 112.782C28.0804 113.473 29.3549 113.818 30.9986 113.818ZM61.0198 96.4876V115.14H59.2332V98.0956H49.5138L49.2636 103.062C49.1207 105.635 48.9063 107.791 48.6204 109.53C48.3346 111.269 47.8462 112.675 47.1554 113.747C46.4645 114.819 45.5116 115.355 44.2967 115.355C43.9394 115.355 43.4272 115.271 42.7602 115.105L42.9388 113.568C43.32 113.663 43.6059 113.711 43.7964 113.711C44.797 113.711 45.5593 113.223 46.0834 112.246C46.6075 111.269 46.9648 110.054 47.1554 108.601C47.3459 107.148 47.5008 105.254 47.6199 102.92L47.9415 96.4876H61.0198ZM81.2099 98.0956H73.9203V115.14H72.1337V98.0956H64.8441V96.4876H81.2099V98.0956ZM96.3985 115.319C93.9448 115.319 91.7293 114.771 89.7521 113.675C87.7987 112.579 86.2503 111.067 85.1068 109.137C83.9872 107.208 83.4273 105.04 83.4273 102.634C83.4273 100.228 83.9872 98.0598 85.1068 96.1302C86.2503 94.2006 87.7987 92.6879 89.7521 91.5921C91.7293 90.4963 93.9448 89.9484 96.3985 89.9484C98.209 89.9484 99.8765 90.2462 101.401 90.8417C102.926 91.4134 104.224 92.271 105.296 93.4145L104.153 94.5937C102.152 92.6165 99.5906 91.6278 96.4699 91.6278C94.3736 91.6278 92.4678 92.1043 90.7526 93.0572C89.0374 94.0101 87.6915 95.3322 86.7148 97.0236C85.7381 98.6911 85.2497 100.561 85.2497 102.634C85.2497 104.706 85.7381 106.588 86.7148 108.28C87.6915 109.947 89.0374 111.257 90.7526 112.21C92.4678 113.163 94.3736 113.639 96.4699 113.639C99.5668 113.639 102.128 112.639 104.153 110.638L105.296 111.817C104.224 112.961 102.914 113.83 101.365 114.426C99.8408 115.021 98.1851 115.319 96.3985 115.319ZM126.838 96.4876V115.14H125.052V98.0956H112.331V115.14H110.544V96.4876H126.838ZM150.454 106.243H134.409C134.457 107.696 134.826 108.994 135.517 110.138C136.208 111.257 137.137 112.127 138.304 112.746C139.495 113.366 140.83 113.675 142.307 113.675C143.521 113.675 144.641 113.461 145.665 113.032C146.714 112.579 147.583 111.924 148.274 111.067L149.31 112.246C148.5 113.223 147.476 113.973 146.237 114.497C145.022 115.021 143.7 115.283 142.271 115.283C140.413 115.283 138.757 114.878 137.304 114.068C135.851 113.258 134.707 112.139 133.873 110.709C133.064 109.28 132.659 107.648 132.659 105.814C132.659 104.003 133.04 102.384 133.802 100.954C134.588 99.5011 135.66 98.3695 137.018 97.5596C138.376 96.7496 139.9 96.3446 141.592 96.3446C143.283 96.3446 144.796 96.7496 146.13 97.5596C147.488 98.3457 148.548 99.4534 149.31 100.883C150.096 102.312 150.489 103.932 150.489 105.742L150.454 106.243ZM141.592 97.9169C140.282 97.9169 139.102 98.2147 138.054 98.8102C137.006 99.3819 136.16 100.204 135.517 101.276C134.898 102.324 134.54 103.515 134.445 104.849H148.738C148.667 103.515 148.31 102.324 147.666 101.276C147.023 100.228 146.178 99.4058 145.129 98.8102C144.081 98.2147 142.902 97.9169 141.592 97.9169ZM175.373 113.568V120H173.658V115.14H156.327V96.4876H158.114V113.568H170.478V96.4876H172.264V113.568H175.373ZM191.943 115.319C189.489 115.319 187.274 114.771 185.297 113.675C183.343 112.579 181.795 111.067 180.651 109.137C179.532 107.208 178.972 105.04 178.972 102.634C178.972 100.228 179.532 98.0598 180.651 96.1302C181.795 94.2006 183.343 92.6879 185.297 91.5921C187.274 90.4963 189.489 89.9484 191.943 89.9484C193.753 89.9484 195.421 90.2462 196.946 90.8417C198.471 91.4134 199.769 92.271 200.841 93.4145L199.697 94.5937C197.696 92.6165 195.135 91.6278 192.014 91.6278C189.918 91.6278 188.012 92.1043 186.297 93.0572C184.582 94.0101 183.236 95.3322 182.259 97.0236C181.282 98.6911 180.794 100.561 180.794 102.634C180.794 104.706 181.282 106.588 182.259 108.28C183.236 109.947 184.582 111.257 186.297 112.21C188.012 113.163 189.918 113.639 192.014 113.639C195.112 113.639 197.673 112.639 199.697 110.638L200.841 111.817C199.769 112.961 198.459 113.83 196.91 114.426C195.386 115.021 193.73 115.319 191.943 115.319ZM218.036 98.0956H210.747V115.14H208.96V98.0956H201.671V96.4876H218.036V98.0956ZM228.044 96.3446C230.354 96.3446 232.129 96.9402 233.368 98.1313C234.607 99.2986 235.226 101.026 235.226 103.313V115.14H233.511V111.817C232.915 112.913 232.046 113.771 230.902 114.39C229.759 114.985 228.389 115.283 226.793 115.283C224.721 115.283 223.077 114.795 221.862 113.818C220.671 112.841 220.075 111.555 220.075 109.959C220.075 108.411 220.623 107.16 221.719 106.207C222.839 105.23 224.613 104.742 227.043 104.742H233.439V103.241C233.439 101.502 232.963 100.18 232.01 99.2747C231.081 98.3695 229.711 97.9169 227.901 97.9169C226.662 97.9169 225.471 98.1313 224.327 98.5601C223.208 98.9889 222.255 99.5606 221.469 100.275L220.575 98.9889C221.505 98.1551 222.624 97.5119 223.934 97.0593C225.245 96.5828 226.614 96.3446 228.044 96.3446ZM227.043 113.818C228.592 113.818 229.902 113.461 230.974 112.746C232.07 112.031 232.892 110.995 233.439 109.637V106.136H227.079C225.245 106.136 223.911 106.469 223.077 107.136C222.267 107.803 221.862 108.72 221.862 109.888C221.862 111.102 222.315 112.067 223.22 112.782C224.125 113.473 225.399 113.818 227.043 113.818ZM257.063 96.4876V115.14H255.276V98.0956H245.557L245.307 103.062C245.164 105.635 244.949 107.791 244.664 109.53C244.378 111.269 243.889 112.675 243.199 113.747C242.508 114.819 241.555 115.355 240.34 115.355C239.983 115.355 239.47 115.271 238.803 115.105L238.982 113.568C239.363 113.663 239.649 113.711 239.84 113.711C240.84 113.711 241.602 113.223 242.127 112.246C242.651 111.269 243.008 110.054 243.199 108.601C243.389 107.148 243.544 105.254 243.663 102.92L243.985 96.4876H257.063ZM272.252 103.277C274.562 103.301 276.325 103.813 277.54 104.813C278.755 105.79 279.363 107.231 279.363 109.137C279.363 111.114 278.719 112.627 277.433 113.675C276.147 114.723 274.277 115.236 271.823 115.212L264.783 115.14V96.4876H266.57V103.205L272.252 103.277ZM271.787 113.782C273.669 113.806 275.098 113.425 276.075 112.639C277.052 111.853 277.54 110.686 277.54 109.137C277.54 107.636 277.064 106.529 276.111 105.814C275.158 105.075 273.717 104.682 271.787 104.635L266.57 104.599V113.711L271.787 113.782Z" fill="white"/>
</svg>
