<svg width="19" height="23" viewBox="0 0 19 23" fill="none" xmlns="http://www.w3.org/2000/svg">
<path d="M1.72776 6.36332L1.72777 6.36331C2.22584 5.31634 2.86178 4.45577 3.63023 3.76615C4.41301 3.06365 5.27923 2.54193 6.23295 2.19408C7.20938 1.83795 8.15958 1.66553 9.08824 1.66553C10.0169 1.66553 10.9674 1.83795 11.9443 2.19412C12.8984 2.54199 13.7649 3.06372 14.5476 3.76615C15.316 4.45566 15.9519 5.3165 16.4501 6.36424C16.9246 7.36263 17.1779 8.55652 17.1779 9.97176C17.1779 11.7468 16.5283 13.6198 15.1229 15.6065C13.8071 17.4664 11.8084 19.452 9.08893 21.5578C6.36968 19.452 4.37125 17.4643 3.05551 15.6006C1.64932 13.6086 1 11.7353 1 9.96472C1 8.55291 1.25311 7.36104 1.72776 6.36332ZM9.09191 13.1108C10.0082 13.1108 10.8172 12.7728 11.4639 12.1233C12.1096 11.4749 12.4453 10.6661 12.4453 9.75143C12.4453 8.83523 12.1073 8.02616 11.4577 7.37944C10.8093 6.7338 10.0006 6.39805 9.08592 6.39805C8.16965 6.39805 7.36065 6.73609 6.71398 7.38555C6.06837 8.03395 5.73252 8.84266 5.73252 9.75744C5.73252 10.6737 6.07054 11.4827 6.72001 12.1294C7.36843 12.775 8.17714 13.1108 9.09191 13.1108Z" stroke="black" stroke-width="2" stroke-linejoin="round"/>
</svg>
