<svg width="112" height="44" viewBox="0 0 112 44" fill="none" xmlns="http://www.w3.org/2000/svg">
<g clip-path="url(#clip0_240_614)" filter="url(#filter0_d_240_614)">
<path d="M41.9328 19.9901C41.2068 18.6772 40.2972 17.3624 39.2468 16.0962C39.9224 13.6182 40.8449 10.2333 40.936 9.88902C41.3467 8.33835 40.937 6.71488 39.8402 5.54614C38.9712 4.62021 37.7444 4.08911 36.4742 4.08911C35.2968 4.08911 34.1753 4.53302 33.3164 5.33919L29.839 8.60255C27.7702 7.62115 25.7597 7.08082 24 7.08082C22.2402 7.08082 20.2297 7.62122 18.1609 8.60269L14.6836 5.33935C13.8247 4.53333 12.7033 4.08927 11.5258 4.08927C10.2556 4.08927 9.02874 4.62036 8.15976 5.54622C7.06304 6.71495 6.65344 8.33842 7.06398 9.88909C7.15515 10.2334 8.0775 13.6183 8.75328 16.0964C7.70273 17.3624 6.79328 18.6773 6.06726 19.9902C4.69547 22.4704 4 24.8561 4 27.0808V28.1333L24 35.9111L44 28.1333V27.0808C44 24.8561 43.3045 22.4704 41.9328 19.9901ZM35.422 7.58282C35.7083 7.31402 36.082 7.16608 36.4741 7.16608C36.904 7.16615 37.3026 7.33855 37.5965 7.65195C37.9623 8.04155 38.0987 8.58342 37.9614 9.10155C37.894 9.35622 37.3362 11.4048 36.7757 13.4616C35.4518 12.2076 34.0563 11.1061 32.6476 10.1864L35.422 7.58282ZM10.4034 7.65182C10.6973 7.33862 11.0959 7.16622 11.5258 7.16622C11.918 7.16622 12.2917 7.31408 12.578 7.58295L15.3522 10.1866C13.9435 11.1062 12.548 12.2078 11.2241 13.4617C10.6634 11.4048 10.1056 9.35608 10.0382 9.10148C9.90125 8.58342 10.0376 8.04155 10.4034 7.65182ZM10.8679 18.3629H14.7692C16.7486 18.3629 18.359 19.9733 18.359 21.9526C18.359 23.932 16.7486 25.5424 14.7692 25.5424H7.225C7.63968 23.2906 8.91562 20.7831 10.8679 18.3629ZM24 32.6096L13.7391 28.6194H14.7692C18.4453 28.6194 21.4358 25.6286 21.4358 21.9527C21.4358 18.2768 18.4451 15.2861 14.7692 15.2861H13.7808C16.6461 12.6871 19.8449 10.874 22.4614 10.3294V14.7733H25.5384V10.3294C28.155 10.874 31.3538 12.6871 34.2191 15.2861H33.2307C29.5546 15.2861 26.564 18.2768 26.564 21.9527C26.564 25.6286 29.5548 28.6194 33.2307 28.6194H34.2608L24 32.6096ZM33.2308 25.5424C31.2514 25.5424 29.641 23.932 29.641 21.9526C29.641 19.9733 31.2514 18.3629 33.2308 18.3629H37.1321C39.0844 20.7832 40.3603 23.2904 40.775 25.5424L33.2308 25.5424Z" fill="white"/>
<path d="M15.2821 23.4912C16.1318 23.4912 16.8205 22.8024 16.8205 21.9527C16.8205 21.1031 16.1318 20.4143 15.2821 20.4143C14.4325 20.4143 13.7437 21.1031 13.7437 21.9527C13.7437 22.8024 14.4325 23.4912 15.2821 23.4912Z" fill="white"/>
<path d="M25.0256 27.0808H24H22.9743C22.4079 27.0808 21.9487 27.54 21.9487 28.1064C21.9487 29.1321 24 30.1577 24 30.1577C24 30.1577 26.0512 29.1321 26.0512 28.1064C26.0512 27.54 25.5921 27.0808 25.0256 27.0808Z" fill="white"/>
<path d="M32.7181 23.4912C33.5678 23.4912 34.2566 22.8024 34.2566 21.9527C34.2566 21.1031 33.5678 20.4143 32.7181 20.4143C31.8685 20.4143 31.1797 21.1031 31.1797 21.9527C31.1797 22.8024 31.8685 23.4912 32.7181 23.4912Z" fill="white"/>
<path d="M51.2412 33V10.1334H58.8199V12.4854H53.7239V16.0787C58.1012 16.4707 61.5639 20.0967 61.5639 24.5394C61.5639 29.2107 57.7092 33 52.9725 33H51.2412ZM59.0812 24.5394C59.0812 21.436 56.7292 18.6267 53.7239 18.4634V30.6154C56.7945 30.452 59.0812 27.6427 59.0812 24.5394ZM82.5732 27.1854L84.5332 28.6227C82.3445 31.5627 78.8492 33.4574 74.8639 33.4574C68.2325 33.4574 62.8425 28.1327 62.8425 21.5667C62.8425 15.0007 68.2325 9.67603 74.8639 9.67603C78.7185 9.67603 82.1485 11.5054 84.3699 14.3147L82.4752 15.7847C80.7439 13.498 77.9999 12.028 74.8639 12.028C69.5391 12.028 65.3251 16.3074 65.3251 21.5667C65.3251 26.826 69.5391 31.1054 74.8639 31.1054C78.0652 31.1054 80.8419 29.57 82.5732 27.1854ZM105.095 27.1854L107.055 28.6227C104.867 31.5627 101.371 33.4574 97.3859 33.4574C90.7545 33.4574 85.3645 28.1327 85.3645 21.5667C85.3645 15.0007 90.7545 9.67603 97.3859 9.67603C101.241 9.67603 104.671 11.5054 106.892 14.3147L104.997 15.7847C103.266 13.498 100.522 12.028 97.3859 12.028C92.0612 12.028 87.8472 16.3074 87.8472 21.5667C87.8472 26.826 92.0612 31.1054 97.3859 31.1054C100.587 31.1054 103.364 29.57 105.095 27.1854Z" fill="white"/>
</g>
<defs>
<filter id="filter0_d_240_614" x="0" y="0" width="112" height="48" filterUnits="userSpaceOnUse" color-interpolation-filters="sRGB">
<feFlood flood-opacity="0" result="BackgroundImageFix"/>
<feColorMatrix in="SourceAlpha" type="matrix" values="0 0 0 0 0 0 0 0 0 0 0 0 0 0 0 0 0 0 127 0" result="hardAlpha"/>
<feOffset dy="4"/>
<feGaussianBlur stdDeviation="2"/>
<feComposite in2="hardAlpha" operator="out"/>
<feColorMatrix type="matrix" values="0 0 0 0 0 0 0 0 0 0 0 0 0 0 0 0 0 0 0.25 0"/>
<feBlend mode="normal" in2="BackgroundImageFix" result="effect1_dropShadow_240_614"/>
<feBlend mode="normal" in="SourceGraphic" in2="effect1_dropShadow_240_614" result="shape"/>
</filter>
<clipPath id="clip0_240_614">
<rect width="104" height="40" fill="white" transform="translate(4)"/>
</clipPath>
</defs>
</svg>
