<svg width="24" height="20" viewBox="0 0 24 20" fill="none" xmlns="http://www.w3.org/2000/svg">
<path fill-rule="evenodd" clip-rule="evenodd" d="M20.2211 2.16795H3.1928C2.60502 2.16795 2.12853 2.65326 2.12853 3.25192V16.2596C2.12853 16.8583 2.60502 17.3436 3.1928 17.3436H20.2211C20.8088 17.3436 21.2853 16.8583 21.2853 16.2596V3.25192C21.2853 2.65326 20.8088 2.16795 20.2211 2.16795ZM3.1928 0C1.42946 0 0 1.45594 0 3.25192V16.2596C0 18.0556 1.42946 19.5115 3.1928 19.5115H20.2211C21.9844 19.5115 23.4138 18.0556 23.4138 16.2596V3.25192C23.4138 1.45594 21.9844 0 20.2211 0H3.1928Z" fill="black"/>
<path fill-rule="evenodd" clip-rule="evenodd" d="M20.2211 2.16795H3.1928C2.60502 2.16795 2.12853 2.65326 2.12853 3.25192V16.2596C2.12853 16.8583 2.60502 17.3436 3.1928 17.3436H20.2211C20.8088 17.3436 21.2853 16.8583 21.2853 16.2596V3.25192C21.2853 2.65326 20.8088 2.16795 20.2211 2.16795ZM3.1928 0C1.42946 0 0 1.45594 0 3.25192V16.2596C0 18.0556 1.42946 19.5115 3.1928 19.5115H20.2211C21.9844 19.5115 23.4138 18.0556 23.4138 16.2596V3.25192C23.4138 1.45594 21.9844 0 20.2211 0H3.1928Z" fill="black" fill-opacity="0.2"/>
<path fill-rule="evenodd" clip-rule="evenodd" d="M20.2211 2.16795H3.1928C2.60502 2.16795 2.12853 2.65326 2.12853 3.25192V16.2596C2.12853 16.8583 2.60502 17.3436 3.1928 17.3436H20.2211C20.8088 17.3436 21.2853 16.8583 21.2853 16.2596V3.25192C21.2853 2.65326 20.8088 2.16795 20.2211 2.16795ZM3.1928 0C1.42946 0 0 1.45594 0 3.25192V16.2596C0 18.0556 1.42946 19.5115 3.1928 19.5115H20.2211C21.9844 19.5115 23.4138 18.0556 23.4138 16.2596V3.25192C23.4138 1.45594 21.9844 0 20.2211 0H3.1928Z" fill="black" fill-opacity="0.2"/>
<path fill-rule="evenodd" clip-rule="evenodd" d="M4.16079 4.34139C4.55499 3.82372 5.25804 3.75378 5.73108 4.18517L10.9932 8.98393C11.4067 9.36099 12.0073 9.36099 12.4207 8.98393L17.6828 4.18517C18.1559 3.75378 18.8589 3.82372 19.2531 4.34139C19.6473 4.85906 19.5834 5.62842 19.1104 6.05981L13.8483 10.8586C12.6079 11.9898 10.8061 11.9898 9.56566 10.8586L4.30355 6.05981C3.8305 5.62842 3.76659 4.85906 4.16079 4.34139Z" fill="black"/>
<path fill-rule="evenodd" clip-rule="evenodd" d="M4.16079 4.34139C4.55499 3.82372 5.25804 3.75378 5.73108 4.18517L10.9932 8.98393C11.4067 9.36099 12.0073 9.36099 12.4207 8.98393L17.6828 4.18517C18.1559 3.75378 18.8589 3.82372 19.2531 4.34139C19.6473 4.85906 19.5834 5.62842 19.1104 6.05981L13.8483 10.8586C12.6079 11.9898 10.8061 11.9898 9.56566 10.8586L4.30355 6.05981C3.8305 5.62842 3.76659 4.85906 4.16079 4.34139Z" fill="black" fill-opacity="0.2"/>
<path fill-rule="evenodd" clip-rule="evenodd" d="M4.16079 4.34139C4.55499 3.82372 5.25804 3.75378 5.73108 4.18517L10.9932 8.98393C11.4067 9.36099 12.0073 9.36099 12.4207 8.98393L17.6828 4.18517C18.1559 3.75378 18.8589 3.82372 19.2531 4.34139C19.6473 4.85906 19.5834 5.62842 19.1104 6.05981L13.8483 10.8586C12.6079 11.9898 10.8061 11.9898 9.56566 10.8586L4.30355 6.05981C3.8305 5.62842 3.76659 4.85906 4.16079 4.34139Z" fill="black" fill-opacity="0.2"/>
</svg>
