<svg width="23" height="23" viewBox="0 0 23 23" fill="none" xmlns="http://www.w3.org/2000/svg">
<path d="M19.2943 12.7407C19.0504 12.7407 18.7955 12.6629 18.5516 12.6073C18.0582 12.4966 17.5731 12.3518 17.0997 12.1737C16.5855 11.9861 16.0203 11.9958 15.5128 12.2011C15.0054 12.4063 14.5915 12.7926 14.3509 13.2855L14.1071 13.7968C13.0306 13.1845 12.0362 12.4374 11.1477 11.5734C10.2863 10.6822 9.54145 9.68477 8.93097 8.60508L9.44082 8.37162C9.93223 8.13028 10.3173 7.71518 10.5219 7.20619C10.7265 6.6972 10.7363 6.13029 10.5492 5.61454C10.3732 5.13542 10.2288 4.6452 10.1169 4.14706C10.0615 3.90248 10.0172 3.64679 9.98392 3.40221C9.84933 2.61913 9.4404 1.90998 8.83079 1.40248C8.22119 0.894971 7.45095 0.622456 6.6588 0.634008H3.3226C2.85403 0.633393 2.39063 0.732116 1.96276 0.923706C1.53489 1.1153 1.15223 1.39543 0.839848 1.74573C0.520991 2.10555 0.283572 2.53034 0.143904 2.99091C0.00423604 3.45148 -0.0343709 3.93692 0.0307358 4.41388C0.633233 9.04103 2.74094 13.3395 6.02703 16.6429C9.32039 19.9389 13.6059 22.053 18.2191 22.6573C18.363 22.6683 18.5075 22.6683 18.6514 22.6573C19.4687 22.6585 20.2579 22.3577 20.8681 21.8124C21.2174 21.4991 21.4967 21.1152 21.6877 20.6861C21.8787 20.2569 21.9771 19.7921 21.9765 19.3221V15.9869C21.9705 15.2188 21.7004 14.4762 21.2117 13.8848C20.723 13.2933 20.0457 12.8892 19.2943 12.7407ZM19.8374 19.4111C19.837 19.5662 19.8043 19.7195 19.7413 19.8612C19.6783 20.0029 19.5864 20.1298 19.4716 20.2337C19.3501 20.3447 19.2055 20.4273 19.0484 20.4753C18.8912 20.5234 18.7253 20.5358 18.5627 20.5117C14.4266 19.9698 10.5827 18.0792 7.62309 15.1309C4.66093 12.1598 2.75958 8.29087 2.21423 4.12483C2.19015 3.96178 2.20252 3.79539 2.25045 3.63773C2.29837 3.48006 2.38065 3.33506 2.49132 3.21321C2.5962 3.09665 2.7245 3.00369 2.86778 2.94046C3.01106 2.87722 3.16607 2.84515 3.3226 2.84634H6.64772C6.90393 2.84006 7.1544 2.92304 7.35648 3.08114C7.55857 3.23924 7.69979 3.46271 7.75609 3.71349C7.75609 4.01366 7.85585 4.32494 7.92235 4.6251C8.05045 5.2075 8.22085 5.77971 8.4322 6.33716L6.88048 7.0709C6.61376 7.19371 6.40649 7.4176 6.30412 7.69347C6.19327 7.96413 6.19327 8.26772 6.30412 8.53838C7.89929 11.9656 10.6459 14.7205 14.0627 16.3205C14.3326 16.4317 14.6352 16.4317 14.9051 16.3205C15.1801 16.2178 15.4033 16.0099 15.5258 15.7424L16.2241 14.1859C16.7959 14.3951 17.3809 14.5659 17.9753 14.6973C18.2635 14.764 18.5738 14.8196 18.8731 14.8641C19.1231 14.9206 19.3459 15.0622 19.5035 15.2649C19.6611 15.4676 19.7439 15.7188 19.7376 15.9758L19.8374 19.4111ZM13.298 0.511719C13.043 0.511719 12.777 0.511719 12.5221 0.511719C12.2281 0.536781 11.9561 0.677944 11.766 0.904155C11.5758 1.13037 11.4829 1.42309 11.5079 1.71794C11.5329 2.01279 11.6737 2.28561 11.8992 2.47637C12.1247 2.66714 12.4166 2.76023 12.7105 2.73517H13.298C15.0617 2.73517 16.7532 3.43794 18.0004 4.68887C19.2475 5.93981 19.9482 7.63644 19.9482 9.40553C19.9482 9.60564 19.9482 9.79463 19.9482 9.99474C19.9236 10.288 20.016 10.5791 20.2051 10.8042C20.3941 11.0293 20.6645 11.17 20.9568 11.1954H21.0455C21.3229 11.1965 21.5907 11.0932 21.796 10.9059C22.0012 10.7186 22.1289 10.4609 22.1539 10.1837C22.1539 9.92804 22.1539 9.66122 22.1539 9.40553C22.1539 7.04867 21.2212 4.78818 19.5607 3.12058C17.9002 1.45299 15.6477 0.514665 13.298 0.511719ZM15.5147 9.40553C15.5147 9.70038 15.6315 9.98315 15.8393 10.1916C16.0472 10.4001 16.3291 10.5173 16.6231 10.5173C16.917 10.5173 17.199 10.4001 17.4068 10.1916C17.6147 9.98315 17.7314 9.70038 17.7314 9.40553C17.7314 8.22613 17.2643 7.09505 16.4329 6.26109C15.6015 5.42713 14.4738 4.95862 13.298 4.95862C13.004 4.95862 12.7221 5.07575 12.5142 5.28424C12.3064 5.49273 12.1896 5.7755 12.1896 6.07035C12.1896 6.3652 12.3064 6.64797 12.5142 6.85646C12.7221 7.06495 13.004 7.18208 13.298 7.18208C13.8859 7.18208 14.4497 7.41633 14.8654 7.83331C15.2812 8.25029 15.5147 8.81583 15.5147 9.40553Z" fill="black"/>
<path d="M19.2943 12.7407C19.0504 12.7407 18.7955 12.6629 18.5516 12.6073C18.0582 12.4966 17.5731 12.3518 17.0997 12.1737C16.5855 11.9861 16.0203 11.9958 15.5128 12.2011C15.0054 12.4063 14.5915 12.7926 14.3509 13.2855L14.1071 13.7968C13.0306 13.1845 12.0362 12.4374 11.1477 11.5734C10.2863 10.6822 9.54145 9.68477 8.93097 8.60508L9.44082 8.37162C9.93223 8.13028 10.3173 7.71518 10.5219 7.20619C10.7265 6.6972 10.7363 6.13029 10.5492 5.61454C10.3732 5.13542 10.2288 4.6452 10.1169 4.14706C10.0615 3.90248 10.0172 3.64679 9.98392 3.40221C9.84933 2.61913 9.4404 1.90998 8.83079 1.40248C8.22119 0.894971 7.45095 0.622456 6.6588 0.634008H3.3226C2.85403 0.633393 2.39063 0.732116 1.96276 0.923706C1.53489 1.1153 1.15223 1.39543 0.839848 1.74573C0.520991 2.10555 0.283572 2.53034 0.143904 2.99091C0.00423604 3.45148 -0.0343709 3.93692 0.0307358 4.41388C0.633233 9.04103 2.74094 13.3395 6.02703 16.6429C9.32039 19.9389 13.6059 22.053 18.2191 22.6573C18.363 22.6683 18.5075 22.6683 18.6514 22.6573C19.4687 22.6585 20.2579 22.3577 20.8681 21.8124C21.2174 21.4991 21.4967 21.1152 21.6877 20.6861C21.8787 20.2569 21.9771 19.7921 21.9765 19.3221V15.9869C21.9705 15.2188 21.7004 14.4762 21.2117 13.8848C20.723 13.2933 20.0457 12.8892 19.2943 12.7407ZM19.8374 19.4111C19.837 19.5662 19.8043 19.7195 19.7413 19.8612C19.6783 20.0029 19.5864 20.1298 19.4716 20.2337C19.3501 20.3447 19.2055 20.4273 19.0484 20.4753C18.8912 20.5234 18.7253 20.5358 18.5627 20.5117C14.4266 19.9698 10.5827 18.0792 7.62309 15.1309C4.66093 12.1598 2.75958 8.29087 2.21423 4.12483C2.19015 3.96178 2.20252 3.79539 2.25045 3.63773C2.29837 3.48006 2.38065 3.33506 2.49132 3.21321C2.5962 3.09665 2.7245 3.00369 2.86778 2.94046C3.01106 2.87722 3.16607 2.84515 3.3226 2.84634H6.64772C6.90393 2.84006 7.1544 2.92304 7.35648 3.08114C7.55857 3.23924 7.69979 3.46271 7.75609 3.71349C7.75609 4.01366 7.85585 4.32494 7.92235 4.6251C8.05045 5.2075 8.22085 5.77971 8.4322 6.33716L6.88048 7.0709C6.61376 7.19371 6.40649 7.4176 6.30412 7.69347C6.19327 7.96413 6.19327 8.26772 6.30412 8.53838C7.89929 11.9656 10.6459 14.7205 14.0627 16.3205C14.3326 16.4317 14.6352 16.4317 14.9051 16.3205C15.1801 16.2178 15.4033 16.0099 15.5258 15.7424L16.2241 14.1859C16.7959 14.3951 17.3809 14.5659 17.9753 14.6973C18.2635 14.764 18.5738 14.8196 18.8731 14.8641C19.1231 14.9206 19.3459 15.0622 19.5035 15.2649C19.6611 15.4676 19.7439 15.7188 19.7376 15.9758L19.8374 19.4111ZM13.298 0.511719C13.043 0.511719 12.777 0.511719 12.5221 0.511719C12.2281 0.536781 11.9561 0.677944 11.766 0.904155C11.5758 1.13037 11.4829 1.42309 11.5079 1.71794C11.5329 2.01279 11.6737 2.28561 11.8992 2.47637C12.1247 2.66714 12.4166 2.76023 12.7105 2.73517H13.298C15.0617 2.73517 16.7532 3.43794 18.0004 4.68887C19.2475 5.93981 19.9482 7.63644 19.9482 9.40553C19.9482 9.60564 19.9482 9.79463 19.9482 9.99474C19.9236 10.288 20.016 10.5791 20.2051 10.8042C20.3941 11.0293 20.6645 11.17 20.9568 11.1954H21.0455C21.3229 11.1965 21.5907 11.0932 21.796 10.9059C22.0012 10.7186 22.1289 10.4609 22.1539 10.1837C22.1539 9.92804 22.1539 9.66122 22.1539 9.40553C22.1539 7.04867 21.2212 4.78818 19.5607 3.12058C17.9002 1.45299 15.6477 0.514665 13.298 0.511719ZM15.5147 9.40553C15.5147 9.70038 15.6315 9.98315 15.8393 10.1916C16.0472 10.4001 16.3291 10.5173 16.6231 10.5173C16.917 10.5173 17.199 10.4001 17.4068 10.1916C17.6147 9.98315 17.7314 9.70038 17.7314 9.40553C17.7314 8.22613 17.2643 7.09505 16.4329 6.26109C15.6015 5.42713 14.4738 4.95862 13.298 4.95862C13.004 4.95862 12.7221 5.07575 12.5142 5.28424C12.3064 5.49273 12.1896 5.7755 12.1896 6.07035C12.1896 6.3652 12.3064 6.64797 12.5142 6.85646C12.7221 7.06495 13.004 7.18208 13.298 7.18208C13.8859 7.18208 14.4497 7.41633 14.8654 7.83331C15.2812 8.25029 15.5147 8.81583 15.5147 9.40553Z" fill="black" fill-opacity="0.2"/>
<path d="M19.2943 12.7407C19.0504 12.7407 18.7955 12.6629 18.5516 12.6073C18.0582 12.4966 17.5731 12.3518 17.0997 12.1737C16.5855 11.9861 16.0203 11.9958 15.5128 12.2011C15.0054 12.4063 14.5915 12.7926 14.3509 13.2855L14.1071 13.7968C13.0306 13.1845 12.0362 12.4374 11.1477 11.5734C10.2863 10.6822 9.54145 9.68477 8.93097 8.60508L9.44082 8.37162C9.93223 8.13028 10.3173 7.71518 10.5219 7.20619C10.7265 6.6972 10.7363 6.13029 10.5492 5.61454C10.3732 5.13542 10.2288 4.6452 10.1169 4.14706C10.0615 3.90248 10.0172 3.64679 9.98392 3.40221C9.84933 2.61913 9.4404 1.90998 8.83079 1.40248C8.22119 0.894971 7.45095 0.622456 6.6588 0.634008H3.3226C2.85403 0.633393 2.39063 0.732116 1.96276 0.923706C1.53489 1.1153 1.15223 1.39543 0.839848 1.74573C0.520991 2.10555 0.283572 2.53034 0.143904 2.99091C0.00423604 3.45148 -0.0343709 3.93692 0.0307358 4.41388C0.633233 9.04103 2.74094 13.3395 6.02703 16.6429C9.32039 19.9389 13.6059 22.053 18.2191 22.6573C18.363 22.6683 18.5075 22.6683 18.6514 22.6573C19.4687 22.6585 20.2579 22.3577 20.8681 21.8124C21.2174 21.4991 21.4967 21.1152 21.6877 20.6861C21.8787 20.2569 21.9771 19.7921 21.9765 19.3221V15.9869C21.9705 15.2188 21.7004 14.4762 21.2117 13.8848C20.723 13.2933 20.0457 12.8892 19.2943 12.7407ZM19.8374 19.4111C19.837 19.5662 19.8043 19.7195 19.7413 19.8612C19.6783 20.0029 19.5864 20.1298 19.4716 20.2337C19.3501 20.3447 19.2055 20.4273 19.0484 20.4753C18.8912 20.5234 18.7253 20.5358 18.5627 20.5117C14.4266 19.9698 10.5827 18.0792 7.62309 15.1309C4.66093 12.1598 2.75958 8.29087 2.21423 4.12483C2.19015 3.96178 2.20252 3.79539 2.25045 3.63773C2.29837 3.48006 2.38065 3.33506 2.49132 3.21321C2.5962 3.09665 2.7245 3.00369 2.86778 2.94046C3.01106 2.87722 3.16607 2.84515 3.3226 2.84634H6.64772C6.90393 2.84006 7.1544 2.92304 7.35648 3.08114C7.55857 3.23924 7.69979 3.46271 7.75609 3.71349C7.75609 4.01366 7.85585 4.32494 7.92235 4.6251C8.05045 5.2075 8.22085 5.77971 8.4322 6.33716L6.88048 7.0709C6.61376 7.19371 6.40649 7.4176 6.30412 7.69347C6.19327 7.96413 6.19327 8.26772 6.30412 8.53838C7.89929 11.9656 10.6459 14.7205 14.0627 16.3205C14.3326 16.4317 14.6352 16.4317 14.9051 16.3205C15.1801 16.2178 15.4033 16.0099 15.5258 15.7424L16.2241 14.1859C16.7959 14.3951 17.3809 14.5659 17.9753 14.6973C18.2635 14.764 18.5738 14.8196 18.8731 14.8641C19.1231 14.9206 19.3459 15.0622 19.5035 15.2649C19.6611 15.4676 19.7439 15.7188 19.7376 15.9758L19.8374 19.4111ZM13.298 0.511719C13.043 0.511719 12.777 0.511719 12.5221 0.511719C12.2281 0.536781 11.9561 0.677944 11.766 0.904155C11.5758 1.13037 11.4829 1.42309 11.5079 1.71794C11.5329 2.01279 11.6737 2.28561 11.8992 2.47637C12.1247 2.66714 12.4166 2.76023 12.7105 2.73517H13.298C15.0617 2.73517 16.7532 3.43794 18.0004 4.68887C19.2475 5.93981 19.9482 7.63644 19.9482 9.40553C19.9482 9.60564 19.9482 9.79463 19.9482 9.99474C19.9236 10.288 20.016 10.5791 20.2051 10.8042C20.3941 11.0293 20.6645 11.17 20.9568 11.1954H21.0455C21.3229 11.1965 21.5907 11.0932 21.796 10.9059C22.0012 10.7186 22.1289 10.4609 22.1539 10.1837C22.1539 9.92804 22.1539 9.66122 22.1539 9.40553C22.1539 7.04867 21.2212 4.78818 19.5607 3.12058C17.9002 1.45299 15.6477 0.514665 13.298 0.511719ZM15.5147 9.40553C15.5147 9.70038 15.6315 9.98315 15.8393 10.1916C16.0472 10.4001 16.3291 10.5173 16.6231 10.5173C16.917 10.5173 17.199 10.4001 17.4068 10.1916C17.6147 9.98315 17.7314 9.70038 17.7314 9.40553C17.7314 8.22613 17.2643 7.09505 16.4329 6.26109C15.6015 5.42713 14.4738 4.95862 13.298 4.95862C13.004 4.95862 12.7221 5.07575 12.5142 5.28424C12.3064 5.49273 12.1896 5.7755 12.1896 6.07035C12.1896 6.3652 12.3064 6.64797 12.5142 6.85646C12.7221 7.06495 13.004 7.18208 13.298 7.18208C13.8859 7.18208 14.4497 7.41633 14.8654 7.83331C15.2812 8.25029 15.5147 8.81583 15.5147 9.40553Z" fill="black" fill-opacity="0.2"/>
</svg>
